<svg xmlns="http://www.w3.org/2000/svg" xmlns:xlink="http://www.w3.org/1999/xlink" width="16" height="24" viewBox="0 0 16 24">
  <defs>
    <clipPath id="clip-path">
      <rect width="16" height="24" fill="none"/>
    </clipPath>
    <clipPath id="clip-path-2">
      <path id="Icon" d="M.707,2.207a1,1,0,0,1,0-1.414L.793.707a1,1,0,0,1,1.414,0L7.293,5.793a1,1,0,0,1,0,1.414L2.207,12.293a1,1,0,0,1-1.414,0l-.086-.086a1,1,0,0,1,0-1.414L5,6.5Z" transform="translate(4 5.5)" fill="#c4c8cc"/>
    </clipPath>
  </defs>
  <g id="Icons_24_chevron_24" data-name="Icons 24/chevron_24" clip-path="url(#clip-path)">
    <g id="chevron_24">
      <rect id="Bounds" width="16" height="24" fill="none"/>
      <path id="Icon-2" data-name="Icon" d="M.707,2.207a1,1,0,0,1,0-1.414L.793.707a1,1,0,0,1,1.414,0L7.293,5.793a1,1,0,0,1,0,1.414L2.207,12.293a1,1,0,0,1-1.414,0l-.086-.086a1,1,0,0,1,0-1.414L5,6.5Z" transform="translate(4 5.5)" fill="#c4c8cc"/>
    </g>
  </g>
</svg>
