<svg xmlns="http://www.w3.org/2000/svg" xmlns:xlink="http://www.w3.org/1999/xlink" width="11.313" height="19.813" viewBox="0 0 11.313 19.813">
  <defs>
    <clipPath id="clip-path">
      <rect width="11.313" height="19.813" fill="none"/>
    </clipPath>
    <clipPath id="clip-path-2">
      <path id="Icon" d="M1.061,11.561a1.5,1.5,0,0,1,0-2.121L9.439,1.061a1.5,1.5,0,0,1,2.121,0h0a1.369,1.369,0,0,1,0,1.879L4,10.5l7.439,7.439a1.5,1.5,0,0,1,0,2.121h0a1.369,1.369,0,0,1-1.879,0Z" transform="translate(3.5 3.5)" fill="#404040"/>
    </clipPath>
  </defs>
  <g id="Icons_Unsorted_chevron_back_28" data-name="Icons Unsorted/chevron_back_28" clip-path="url(#clip-path)">
    <g id="chevron_back_28" transform="translate(-4.121 -4.121)">
      <path id="Icon-2" data-name="Icon" d="M1.061,11.561a1.5,1.5,0,0,1,0-2.121L9.439,1.061a1.5,1.5,0,0,1,2.121,0h0a1.369,1.369,0,0,1,0,1.879L4,10.5l7.439,7.439a1.5,1.5,0,0,1,0,2.121h0a1.369,1.369,0,0,1-1.879,0Z" transform="translate(3.5 3.5)" fill="#404040"/>
    </g>
  </g>
</svg>
