<svg xmlns="http://www.w3.org/2000/svg" width="46.008" height="26.604" viewBox="0 0 46.008 26.604">
  <defs>
    <style>
      .cls-1, .cls-2, .cls-3, .cls-4, .cls-5, .cls-7, .cls-9 {
        fill: none;
      }

      .cls-1, .cls-2, .cls-3, .cls-4, .cls-5, .cls-6, .cls-7 {
        stroke: #404040;
      }

      .cls-1, .cls-4, .cls-5, .cls-7 {
        stroke-width: 0.5px;
      }

      .cls-2 {
        stroke-width: 1.5px;
      }

      .cls-3, .cls-4, .cls-5, .cls-7 {
        stroke-linecap: round;
      }

      .cls-3, .cls-4 {
        stroke-linejoin: round;
      }

      .cls-3 {
        stroke-width: 2px;
      }

      .cls-6 {
        fill: #fff;
      }

      .cls-7 {
        stroke-dasharray: 0.3 1;
      }

      .cls-8 {
        stroke: none;
      }
    </style>
  </defs>
  <g id="Group_1416" data-name="Group 1416" transform="translate(-6432.868 -427.894)">
    <g id="Ellipse_72" data-name="Ellipse 72" class="cls-1" transform="translate(6451.695 436.715)">
      <circle class="cls-8" cx="1.07" cy="1.07" r="1.07"/>
      <circle class="cls-9" cx="1.07" cy="1.07" r="0.82"/>
    </g>
    <g id="Ellipse_84" data-name="Ellipse 84" class="cls-1" transform="translate(6454.906 438.856)">
      <circle class="cls-8" cx="1.07" cy="1.07" r="1.07"/>
      <circle class="cls-9" cx="1.07" cy="1.07" r="0.82"/>
    </g>
    <g id="Ellipse_85" data-name="Ellipse 85" class="cls-1" transform="translate(6458.117 440.997)">
      <circle class="cls-8" cx="1.07" cy="1.07" r="1.07"/>
      <circle class="cls-9" cx="1.07" cy="1.07" r="0.82"/>
    </g>
    <g id="Ellipse_86" data-name="Ellipse 86" class="cls-1" transform="translate(6461.329 442.067)">
      <circle class="cls-8" cx="1.07" cy="1.07" r="1.07"/>
      <circle class="cls-9" cx="1.07" cy="1.07" r="0.82"/>
    </g>
    <path id="Path_361" data-name="Path 361" class="cls-2" d="M6080.449,827.631c-2.24,1.731-7.544,2.981-13.705,2.981h-24.891c-5.217,0-4.933-2.98-3.686-5.021s2.317-2.646,5.612-1.814c3.071.782,13.767,2.234,22.965,2.867,6.684.46,11.725-.77,13.422-.77S6082.69,825.9,6080.449,827.631Z" transform="translate(396.253 -376.863)"/>
    <path id="Path_362" data-name="Path 362" class="cls-3" d="M6001.247,888.815c-.172-6.37,6.017-7.221,5.121-13.893,1.591,3.228,4.337,3.83,6.988,3.466,5.16-.662,3.994-6.99,7.579-6.99.359,12.524,11.31,15.1,16.542,16.645s4.931,2.314,5.031,3.589" transform="translate(435.369 -442.504)"/>
    <path id="Path_364" data-name="Path 364" class="cls-4" d="M6019.873,877.8l4.413-2.154-1.38,4.1,3.68-1-.522,3.108,2.406-1.087.605,2.049,1.15-.878" transform="translate(433.606 -440.449)"/>
    <path id="Path_366" data-name="Path 366" class="cls-5" d="M6008.548,897.853V891.2" transform="translate(432.232 -444.104)"/>
    <path id="Path_386" data-name="Path 386" class="cls-5" d="M6008.548,897.573V891.2" transform="translate(434.373 -443.825)"/>
    <path id="Path_387" data-name="Path 387" class="cls-5" d="M6008.548,897.25V891.2" transform="translate(436.513 -443.501)"/>
    <path id="Path_388" data-name="Path 388" class="cls-5" d="M6008.548,897.25V891.2" transform="translate(438.654 -443.502)"/>
    <path id="Path_389" data-name="Path 389" class="cls-5" d="M6008.548,896.661V891.2" transform="translate(440.795 -442.912)"/>
    <path id="Path_390" data-name="Path 390" class="cls-5" d="M6008.548,896.123V891.2" transform="translate(442.936 -442.375)"/>
    <path id="Path_391" data-name="Path 391" class="cls-5" d="M6008.548,896.123V891.2" transform="translate(445.076 -442.375)"/>
    <path id="Path_392" data-name="Path 392" class="cls-5" d="M6008.548,895.949V891.2" transform="translate(447.217 -441.906)"/>
    <path id="Path_393" data-name="Path 393" class="cls-5" d="M6008.548,895.654V891.2" transform="translate(449.358 -441.906)"/>
    <path id="Path_394" data-name="Path 394" class="cls-5" d="M6008.548,895.654V891.2" transform="translate(451.499 -441.906)"/>
    <path id="Path_395" data-name="Path 395" class="cls-5" d="M6008.548,895.218V891.2" transform="translate(453.639 -441.47)"/>
    <path id="Path_396" data-name="Path 396" class="cls-5" d="M6008.548,895.218V891.2" transform="translate(455.78 -441.47)"/>
    <path id="Path_397" data-name="Path 397" class="cls-5" d="M6008.548,895.218V891.2" transform="translate(457.921 -441.47)"/>
    <path id="Path_398" data-name="Path 398" class="cls-5" d="M6008.548,894.363V891.2" transform="translate(460.062 -441.734)"/>
    <path id="Path_399" data-name="Path 399" class="cls-5" d="M6008.548,894.363V891.2" transform="translate(462.202 -441.734)"/>
    <path id="Path_400" data-name="Path 400" class="cls-5" d="M6008.548,894.47V891.2" transform="translate(464.343 -441.912)"/>
    <path id="Path_401" data-name="Path 401" class="cls-5" d="M6008.548,893.565V891.2" transform="translate(466.484 -441.825)"/>
    <path id="Path_385" data-name="Path 385" class="cls-5" d="M6008.548,898.262V891.2" transform="translate(430.091 -444.584)"/>
    <path id="Path_431" data-name="Path 431" class="cls-5" d="M6008.548,898.262V891.2" transform="translate(428.091 -444.584)"/>
    <path id="Path_402" data-name="Path 402" class="cls-1" d="M6025.174,1668.482s1.066-6.392,3.132-5.137-2.875,5.137-2.875,5.137" transform="translate(433.061 -1233.557)"/>
    <path id="Path_403" data-name="Path 403" class="cls-1" d="M-.191,3.129S1.232-.89,2.62.216-.066,3.355-.066,3.355" transform="matrix(0.875, 0.485, -0.485, 0.875, 6460.178, 432.448)"/>
    <path id="Path_430" data-name="Path 430" class="cls-4" d="M6010.117,1670.658c2.834,2.551,20.667,7.386,27.152,8.271-10.833-.516-25.452-3.962-29.08-5.55C6005.372,1671,6007.283,1668.107,6010.117,1670.658Z" transform="translate(432.141 -1232.134)"/>
    <g id="Group_1167" data-name="Group 1167" transform="matrix(0.985, -0.174, 0.174, 0.985, 21.018, 1125.75)">
      <g id="Rectangle_1435" data-name="Rectangle 1435" class="cls-6" transform="translate(6437.113 431.676) rotate(45)">
        <path class="cls-8" d="M2.117,0H9a.529.529,0,0,1,.529.529V3.7A.529.529,0,0,1,9,4.234H2.117A2.117,2.117,0,0,1,0,2.117v0A2.117,2.117,0,0,1,2.117,0Z"/>
        <path class="cls-9" d="M2.117.5H8.795a.231.231,0,0,1,.231.231V3.5a.231.231,0,0,1-.231.231H2.117A1.617,1.617,0,0,1,.5,2.117v0A1.617,1.617,0,0,1,2.117.5Z"/>
      </g>
      <path id="Path_363" data-name="Path 363" class="cls-5" d="M6006.108,880.194l-5.58-5.58" transform="translate(435.761 -440.717)"/>
    </g>
    <path id="Path_432" data-name="Path 432" class="cls-7" d="M6437.6,446.177c.668-6.08,4.478-6.135,5.132-10.8" transform="translate(1)"/>
  </g>
</svg>
